<svg xmlns:xlink="http://www.w3.org/1999/xlink" xmlns="http://www.w3.org/2000/svg" width="189" height="27" viewBox="0 0 189 27" fill="none">
<path d="M6.0106 14.0992V5.31951H12.1999L9.17457 0H0V26.2473H6.0106V19.3787H9.19573L12.1999 14.0992H6.0106Z" fill="#0F0E33"/>
<path d="M12.4628 0H9.17188L12.1995 5.31951H12.2489C15.0626 5.31951 16.1415 7.57143 16.1415 9.73403C16.1415 11.8966 15.0696 14.0804 12.1995 14.1015L9.19538 19.3811H12.4651C19.2138 19.3811 22.1992 14.621 22.1992 9.73637C22.1992 4.85173 19.2115 0 12.4628 0Z" fill="#0A7AFF"/>
<path d="M30.4375 1.75391H39.6779C44.7271 1.75391 46.9061 5.41621 46.9061 9.11378C46.9061 12.8113 44.7271 16.4078 39.6779 16.4078H34.6616V24.4941H30.4375V1.75391ZM34.6616 5.51494V12.6444H39.4804C41.6595 12.6444 42.682 10.7968 42.682 9.11378C42.682 7.43072 41.7253 5.51729 39.6121 5.51729H34.6616V5.51494Z" fill="#0F0E33"/>
<path d="M63.1485 18.1244H51.4C51.6633 20.1694 53.3792 21.4247 55.657 21.4247C57.2084 21.4247 58.7928 20.7642 59.5191 19.4454C60.4758 19.9743 61.5995 20.5667 62.5891 21.0956C61.2022 23.7354 58.2333 24.8237 55.3937 24.8237C51.0051 24.8237 47.4062 21.5892 47.4062 16.7375C47.4062 11.8858 51.0027 8.75 55.3937 8.75C59.7848 8.75 63.2143 11.8858 63.2143 16.7375C63.2143 17.1324 63.1814 17.76 63.1485 18.1244ZM59.2864 15.3859C58.9902 13.2726 57.4059 12.1185 55.4243 12.1185C53.3111 12.1185 51.6633 13.3056 51.3647 15.3859H59.2864Z" fill="#0F0E33"/>
<path d="M69.511 24.4946H65.4844V9.08144H69.511V12.7108C70.3032 9.90652 72.1179 8.75 73.8668 8.75C74.9551 8.75 75.7802 8.98036 76.4078 9.3118L75.7144 12.9412C74.7577 12.5134 73.768 12.5134 73.3708 12.5134C70.6323 12.5134 69.5087 14.9557 69.5087 19.0482V24.4946H69.511Z" fill="#0F0E33"/>
<path d="M91.9453 16.2783V24.4962H87.9187V16.0151C87.8858 13.8689 86.6634 12.6818 85.0815 12.6818C83.4995 12.6818 81.847 13.6385 81.847 16.2783V24.4962H77.8203V9.083H81.847V11.3608C82.705 9.48026 84.8182 8.78682 86.2685 8.78682C88.7109 8.91845 90.3281 9.77644 91.1861 11.657C92.6388 9.11591 94.8155 8.75391 96.0378 8.75391C99.7659 8.75391 101.978 11.1633 101.978 15.6836V24.4962H97.9842V16.1138C97.9842 13.9018 96.7289 12.6818 95.0811 12.6818C93.2664 12.6818 91.9453 13.9371 91.9453 16.2783Z" fill="#0F0E33"/>
<path d="M107.06 0.699219C108.447 0.699219 109.601 1.75466 109.601 3.10863C109.601 4.4626 108.447 5.55095 107.06 5.55095C105.673 5.55095 104.453 4.49551 104.453 3.10863C104.453 1.72175 105.643 0.699219 107.06 0.699219ZM109.039 24.4948H105.045V9.08162H109.039V24.4948Z" fill="#0F0E33"/>
<path d="M117.415 9.0813H120.683V12.3158H117.415V24.4945H113.422V12.3158H110.617V9.0813H113.422V3.20703H117.415V9.0813Z" fill="#0F0E33"/>
<path d="M139.717 5.35275H129.947L128.859 11.5232H136.581L135.953 15.1197H128.232L126.581 24.4917H122.555L126.548 1.75391H140.344L139.717 5.35039V5.35275Z" fill="#0A7AFF"/>
<path d="M137.867 24.4948L142.058 0.699219H145.888L141.696 24.4948H137.87H137.867Z" fill="#0A7AFF"/>
<path d="M145.605 16.7698C146.463 11.8852 150.819 8.68359 155.21 8.68359C159.601 8.68359 162.866 11.8852 162.008 16.7698C161.15 21.6545 156.761 24.8889 152.372 24.8889C147.984 24.8889 144.749 21.6545 145.607 16.7698H145.605ZM158.146 16.7698C158.606 14.13 156.956 12.2472 154.582 12.2472C152.208 12.2472 149.93 14.1277 149.467 16.7698C149.004 19.4754 150.621 21.323 152.998 21.323C155.374 21.323 157.685 19.4754 158.146 16.7698Z" fill="#0A7AFF"/>
<path d="M184.102 9.08203H188.227L179.976 24.4952H176.742L175.026 13.9667L169.714 24.4952H166.512L163.508 9.08203H167.633L169.152 19.0488L174.168 9.08203H177.567L179.086 19.0488L184.102 9.08203Z" fill="#0A7AFF"/>
</svg>